<svg xmlns="http://www.w3.org/2000/svg" width="180" height="180" viewBox="0 0 180 180" version="1.1">
	<path d="M 0 14.607 C 0 18.600, 0.233 19.119, 1.750 18.499 C 5.110 17.126, 14.525 15.071, 17.619 15.036 C 20.433 15.003, 20.795 15.351, 21.321 18.589 C 21.915 22.250, 23.546 25, 25.122 25 C 26.333 25, 26.231 21.261, 25 20.500 C 24.450 20.160, 24 18.529, 24 16.875 C 24 10.483, 23.084 10, 10.965 10 L 0 10 0 14.607 M 37 10.860 C 37 11.368, 39.726 14.308, 43.057 17.392 C 48.009 21.977, 49.751 23, 52.608 23 C 55.606 23, 56.294 22.539, 57.453 19.750 C 58.196 17.962, 58.960 15.150, 59.152 13.500 L 59.500 10.500 48.250 10.217 C 41.821 10.056, 37 10.331, 37 10.860 M 100.286 10.650 C 98.175 11.506, 101.173 15, 104.018 15 C 106.720 15, 111 12.513, 111 10.943 C 111 9.984, 102.502 9.752, 100.286 10.650 M 128.208 10.871 C 127.384 11.380, 126.847 14.314, 126.712 19.049 C 126.444 28.370, 127.905 29.037, 134.115 22.428 C 138.139 18.146, 143.214 15, 146.098 15 C 146.879 15, 147.098 16.434, 146.768 19.370 C 146.240 24.047, 147.272 27, 149.433 27 C 151.136 27, 152.055 30.477, 151.320 34.149 C 150.783 36.836, 150.944 36.999, 154.125 36.981 C 158.439 36.956, 175.949 34.425, 178.250 33.494 C 179.776 32.877, 180 33.418, 180 37.719 C 180 41.739, 179.520 43.100, 177.405 45.076 C 173.450 48.770, 170.035 55.225, 169.590 59.848 C 169.248 63.397, 169.574 64.306, 171.818 66.072 C 173.264 67.209, 175.672 68.384, 177.169 68.684 C 179.315 69.113, 179.974 69.891, 180.285 72.364 C 180.978 77.871, 181.025 40.895, 180.345 25.176 L 179.689 10.034 154.591 10.055 C 140.788 10.067, 128.915 10.434, 128.208 10.871 M 16.965 31.934 C 17.534 32.998, 18 34.176, 18 34.551 C 18 35.476, 4.942 34.030, 2.750 32.862 C 1.108 31.987, 1.002 33.273, 1.032 53.715 C 1.060 73.230, 1.219 75.292, 2.551 73.500 C 5.814 69.112, 7.028 68.036, 9.217 67.590 C 17.177 65.970, 17 66.075, 17 62.959 C 17 61.307, 15.650 56.979, 14 53.340 C 10.774 46.225, 10.165 42, 12.365 42 C 14.621 42, 19 37.992, 19 35.927 C 19 34.551, 19.697 34, 21.441 34 C 22.784 34, 24.160 33.550, 24.500 33 C 24.860 32.418, 23.863 32, 22.118 32 C 20.468 32, 18.840 31.550, 18.500 31 C 17.311 29.076, 15.896 29.937, 16.965 31.934 M 70.101 36.734 C 68.232 36.962, 65.757 37.748, 64.601 38.479 C 63.446 39.211, 60.228 40.107, 57.452 40.471 C 54.676 40.835, 51.946 41.440, 51.386 41.816 C 49.936 42.790, 44 51.664, 44 52.859 C 44 53.408, 43.213 54.644, 42.250 55.605 C 40.958 56.896, 40.359 59.624, 39.962 66.030 C 39.490 73.655, 39.085 75.110, 36.626 78.033 C 34.139 80.988, 33.903 81.866, 34.507 85.892 C 35.295 91.148, 37.471 97.027, 40.470 102 C 43.254 106.615, 45.439 112.066, 47.673 119.959 C 49.189 125.319, 50.606 127.628, 56 133.528 C 59.575 137.438, 63.697 142.695, 65.160 145.211 C 67.546 149.313, 68.268 149.838, 72.160 150.303 C 74.547 150.588, 78.525 151.292, 81 151.867 C 88.433 153.595, 96.609 153.240, 101 151 C 103.156 149.900, 105.893 149, 107.083 149 C 108.440 149, 111.561 146.579, 115.464 142.500 C 120.481 137.255, 122.276 136, 124.760 136 C 127.165 136, 128.284 135.276, 129.885 132.687 C 132.760 128.034, 137.825 115.819, 140.422 107.274 C 141.630 103.300, 142.914 99.753, 143.274 99.392 C 143.635 99.032, 143.482 97.901, 142.935 96.879 C 142.209 95.522, 142.381 94.348, 143.570 92.533 C 146.447 88.143, 145.585 80.773, 141.017 70.697 C 137.943 63.918, 137.204 60, 139 60 C 139.550 60, 140 59.325, 140 58.500 C 140 57.675, 139.550 57, 139 57 C 138.450 57, 138 57.450, 138 58 C 138 59.375, 134.846 59.201, 132.904 57.718 C 132.026 57.048, 130.552 55.038, 129.628 53.250 C 128.704 51.462, 127.582 50, 127.135 50 C 126.687 50, 125.835 48.933, 125.241 47.629 C 123.631 44.096, 106.970 38.776, 100.294 39.664 C 97.657 40.015, 95.151 40.890, 94.724 41.609 C 94.297 42.328, 93.287 42.663, 92.479 42.354 C 91.672 42.044, 91.217 41.459, 91.467 41.053 C 91.718 40.648, 89.978 39.345, 87.602 38.158 C 83.384 36.051, 78.777 35.677, 70.101 36.734 M 176.248 87.603 C 174.461 89.001, 173 90.576, 173 91.103 C 173 91.630, 174.551 93.423, 176.448 95.088 C 179.282 97.577, 179.961 98.949, 180.267 102.808 C 180.472 105.388, 180.689 103.225, 180.749 98 C 180.810 92.775, 180.553 87.726, 180.177 86.781 C 179.563 85.233, 179.172 85.315, 176.248 87.603 M 1 101.022 L 1 107.259 5.250 103.759 C 7.588 101.834, 9.644 99.300, 9.820 98.129 C 10.085 96.361, 9.633 96, 7.151 96 C 5.508 96, 3.452 95.727, 2.582 95.393 C 1.244 94.880, 1 95.746, 1 101.022 M 0 121.981 L 0 131.096 4.250 128.154 C 14.175 121.284, 15.250 117.250, 7.731 115.089 C 5.404 114.420, 2.712 113.646, 1.750 113.369 C 0.174 112.915, 0 113.774, 0 121.981 M 173.500 115.229 C 166.989 117.436, 166 118.019, 166 119.649 C 166 120.580, 168.363 123.475, 171.250 126.084 C 175.727 130.128, 176.337 131.097, 175.396 132.663 C 174.789 133.673, 172.989 134.890, 171.396 135.367 C 166.540 136.820, 165.506 137.632, 165.349 140.115 C 165.265 141.427, 165.153 143.063, 165.099 143.750 C 165.044 144.438, 164.295 145, 163.434 145 C 162.573 145, 160.967 145.482, 159.866 146.072 C 157.977 147.083, 157.956 147.284, 159.493 149.629 C 161.613 152.866, 168.518 159.130, 171.867 160.857 C 175.361 162.658, 177 164.864, 177 167.764 C 177 169.493, 177.480 170.056, 178.750 169.815 C 181.127 169.364, 181.334 165.453, 180.480 137.250 C 179.706 111.691, 180.117 112.987, 173.500 115.229 M 1 153.850 L 1 170 26.035 170 C 50.239 170, 51.037 169.937, 50.063 168.118 C 48.729 165.625, 46.695 164.898, 39.454 164.329 C 34.882 163.969, 32.078 164.359, 27.954 165.926 C 24.954 167.066, 21.791 167.999, 20.924 167.999 C 18.740 168, 15 163.797, 15 161.341 C 15 159.008, 11.544 154.782, 8.250 153.087 C 5.944 151.901, 5.269 149.570, 6.934 148.541 C 7.447 148.224, 9.585 148.555, 11.684 149.277 C 18.061 151.472, 21.250 150.861, 23.177 147.077 C 26.289 140.964, 23.787 139.318, 9.885 138.331 L 1 137.701 1 153.850 M 144 157.532 C 144 161.253, 150.772 170, 153.652 170 C 155.012 170, 155.133 169.733, 154.200 168.800 C 153.540 168.140, 153 166.108, 153 164.285 C 153 161.619, 152.364 160.583, 149.750 158.989 C 146.624 157.083, 144 156.418, 144 157.532 M 75.813 168.683 C 76.534 168.972, 77.397 168.936, 77.729 168.604 C 78.061 168.272, 77.471 168.036, 76.417 168.079 C 75.252 168.127, 75.015 168.364, 75.813 168.683" stroke="none" fill="black" fill-rule="evenodd"/>
</svg>